<svg width="16" height="16" viewBox="0 0 16 16" fill="none" xmlns="http://www.w3.org/2000/svg">
    <path fill-rule="evenodd" clip-rule="evenodd" d="M8 1C8 0.447715 8.44996 -0.00655635 8.99801 0.0616463C12.9453 0.552862 16 3.9197 16 8C16 12.4183 12.4183 16 8 16C3.9197 16 0.552863 12.9453 0.0616464 8.99801C-0.00655632 8.44996 0.447715 8 1 8C1.55228 8 1.99127 8.45107 2.08226 8.99581C2.55661 11.8356 5.02554 14 8 14C11.3137 14 14 11.3137 14 8C14 5.02554 11.8356 2.55661 8.99581 2.08226C8.45108 1.99127 8 1.55228 8 1Z" fill="#1DA189" />
</svg>