<svg width="8" height="8" viewBox="0 0 8 8" fill="none" xmlns="http://www.w3.org/2000/svg">
    <path fill-rule="evenodd" clip-rule="evenodd" d="M3.97266 0.472656C3.97266 0.196514 4.19763 -0.0306219 4.47166 0.00347941C6.4453 0.249087 7.97266 1.93251 7.97266 3.97266C7.97266 6.1818 6.1818 7.97266 3.97266 7.97266C1.93251 7.97266 0.249088 6.4453 0.00347944 4.47166C-0.0306219 4.19763 0.196514 3.97266 0.472656 3.97266C0.748799 3.97266 0.968289 4.19819 1.01378 4.47056C1.25096 5.89045 2.48543 6.97266 3.97266 6.97266C5.62951 6.97266 6.97266 5.62951 6.97266 3.97266C6.97266 2.48543 5.89045 1.25096 4.47056 1.01379C4.19819 0.968289 3.97266 0.748799 3.97266 0.472656Z" fill="#1DA189" />
</svg>