<svg width="12" height="12" viewBox="0 0 12 12" fill="none" xmlns="http://www.w3.org/2000/svg">
    <path fill-rule="evenodd" clip-rule="evenodd" d="M6 0.75C6 0.335786 6.33747 -0.00491726 6.74851 0.0462347C9.70897 0.414647 12 2.93977 12 6C12 9.31371 9.31371 12 6 12C2.93977 12 0.414647 9.70897 0.0462348 6.74851C-0.00491724 6.33747 0.335786 6 0.75 6C1.16421 6 1.49345 6.33831 1.56169 6.74686C1.91746 8.87669 3.76916 10.5 6 10.5C8.48528 10.5 10.5 8.48528 10.5 6C10.5 3.76916 8.87669 1.91746 6.74686 1.56169C6.33831 1.49345 6 1.16421 6 0.75Z" fill="#1DA189" />
</svg>