<svg width="16" height="16" viewBox="0 0 16 16" fill="none" xmlns="http://www.w3.org/2000/svg">
    <path fill-rule="evenodd" clip-rule="evenodd" d="M7.94531 0.945312C7.94531 0.393028 8.39527 -0.0612438 8.94333 0.00695881C12.8906 0.498175 15.9453 3.86501 15.9453 7.94531C15.9453 12.3636 12.3636 15.9453 7.94531 15.9453C3.86501 15.9453 0.498175 12.8906 0.00695887 8.94333C-0.0612438 8.39527 0.393028 7.94531 0.945312 7.94531C1.4976 7.94531 1.93658 8.39639 2.02757 8.94112C2.50192 11.7809 4.97085 13.9453 7.94531 13.9453C11.259 13.9453 13.9453 11.259 13.9453 7.94531C13.9453 4.97085 11.7809 2.50192 8.94113 2.02757C8.39639 1.93658 7.94531 1.4976 7.94531 0.945312Z" fill="#1DA189" />
</svg>