<svg width="48" height="48" viewBox="0 0 48 48" fill="none" xmlns="http://www.w3.org/2000/svg">
    <path fill-rule="evenodd" clip-rule="evenodd" d="M24 2C24 0.895431 24.8986 -0.00869116 25.9994 0.0820979C38.3187 1.09811 48 11.4185 48 24C48 37.2548 37.2548 48 24 48C11.4185 48 1.09811 38.3187 0.082098 25.9994C-0.00869114 24.8986 0.895431 24 2 24C3.10457 24 3.98949 24.898 4.09847 25.9972C5.10062 36.1052 13.6283 44 24 44C35.0457 44 44 35.0457 44 24C44 13.6283 36.1052 5.10062 25.9972 4.09847C24.898 3.9895 24 3.10457 24 2Z" fill="#1DA189" />
</svg>