<svg width="12" height="12" viewBox="0 0 12 12" fill="none" xmlns="http://www.w3.org/2000/svg">
    <path fill-rule="evenodd" clip-rule="evenodd" d="M5.95703 0.708984C5.95703 0.294771 6.2945 -0.0459329 6.70554 0.00521911C9.666 0.373631 11.957 2.89876 11.957 5.95898C11.957 9.27269 9.27074 11.959 5.95703 11.959C2.89681 11.959 0.371678 9.66795 0.00326604 6.7075C-0.047886 6.29645 0.292818 5.95898 0.707031 5.95898C1.12124 5.95898 1.45048 6.29729 1.51872 6.70584C1.87449 8.83567 3.72619 10.459 5.95703 10.459C8.44231 10.459 10.457 8.44427 10.457 5.95898C10.457 3.72814 8.83372 1.87644 6.70389 1.52068C6.29534 1.45243 5.95703 1.1232 5.95703 0.708984Z" fill="#1DA189" />
</svg>