<svg width="64" height="64" viewBox="0 0 64 64" fill="none" xmlns="http://www.w3.org/2000/svg">
    <path fill-rule="evenodd" clip-rule="evenodd" d="M30 2C30 0.89543 30.8954 0 32 0C38.329 1.19209e-07 44.5159 1.87677 49.7782 5.39297C55.0406 8.90918 59.1421 13.9069 61.5641 19.7541C63.9861 25.6014 64.6199 32.0355 63.3851 38.2429C62.1504 44.4503 59.1027 50.1521 54.6274 54.6274C50.1521 59.1027 44.4503 62.1504 38.2429 63.3851C32.0355 64.6199 25.6014 63.9861 19.7541 61.5641C13.9069 59.1421 8.90918 55.0406 5.39297 49.7782C1.87677 44.5159 -2.38419e-07 38.329 0 32C0 30.8954 0.895431 30 2 30C3.10457 30 4 30.8954 4 32C4 37.5379 5.64217 42.9514 8.71885 47.556C11.7955 52.1605 16.1685 55.7494 21.2849 57.8686C26.4012 59.9879 32.0311 60.5424 37.4625 59.462C42.894 58.3816 47.8831 55.7149 51.799 51.799C55.7149 47.8831 58.3816 42.894 59.462 37.4625C60.5424 32.0311 59.9879 26.4012 57.8686 21.2849C55.7494 16.1685 52.1605 11.7955 47.556 8.71885C42.9514 5.64217 37.5379 4 32 4C30.8954 4 30 3.10457 30 2Z" fill="#1DA189" />
</svg>