<svg width="24" height="24" viewBox="0 0 24 24" fill="none" xmlns="http://www.w3.org/2000/svg">
    <path fill-rule="evenodd" clip-rule="evenodd" d="M11.9609 0.961914C11.9609 0.409629 12.4102 -0.0424315 12.9606 0.00296303C19.1203 0.510971 23.9609 5.67115 23.9609 11.9619C23.9609 18.5893 18.5884 23.9619 11.9609 23.9619C5.67017 23.9619 0.509994 19.1213 0.00198649 12.9616C-0.0434081 12.4112 0.408653 11.9619 0.960938 11.9619C1.51322 11.9619 1.95568 12.4109 2.01017 12.9605C2.51125 18.0145 6.77511 21.9619 11.9609 21.9619C17.4838 21.9619 21.9609 17.4848 21.9609 11.9619C21.9609 6.77609 18.0135 2.51223 12.9595 2.01115C12.4099 1.95666 11.9609 1.5142 11.9609 0.961914Z" fill="#1DA189" />
</svg>