<svg width="8" height="8" viewBox="0 0 8 8" fill="none" xmlns="http://www.w3.org/2000/svg">
    <path fill-rule="evenodd" clip-rule="evenodd" d="M4 0.5C4 0.223858 4.22498 -0.00327817 4.49901 0.0308232C6.47264 0.276431 8 1.95985 8 4C8 6.20914 6.20914 8 4 8C1.95985 8 0.276431 6.47264 0.0308232 4.49901C-0.00327816 4.22498 0.223858 4 0.5 4C0.776142 4 0.995633 4.22554 1.04113 4.49791C1.2783 5.91779 2.51277 7 4 7C5.65685 7 7 5.65685 7 4C7 2.51277 5.91779 1.2783 4.49791 1.04113C4.22554 0.995633 4 0.776142 4 0.5Z" fill="#1DA189" />
</svg>