<svg width="48" height="48" viewBox="0 0 48 48" fill="none" xmlns="http://www.w3.org/2000/svg">
    <path fill-rule="evenodd" clip-rule="evenodd" d="M23.9258 1.92383C23.9258 0.819259 24.8243 -0.084863 25.9252 0.00592606C38.2445 1.02194 47.9258 11.3423 47.9258 23.9238C47.9258 37.1787 37.1806 47.9238 23.9258 47.9238C11.3442 47.9238 1.02389 38.2426 0.00787923 25.9232C-0.0829099 24.8224 0.821212 23.9238 1.92578 23.9238C3.03035 23.9238 3.91528 24.8218 4.02425 25.921C5.02641 36.029 13.5541 43.9238 23.9258 43.9238C34.9715 43.9238 43.9258 34.9695 43.9258 23.9238C43.9258 13.5522 36.031 5.02445 25.923 4.0223C24.8238 3.91332 23.9258 3.0284 23.9258 1.92383Z" fill="#1DA189" />
</svg>