<svg width="24" height="24" viewBox="0 0 24 24" fill="none" xmlns="http://www.w3.org/2000/svg">
    <path fill-rule="evenodd" clip-rule="evenodd" d="M12 1C12 0.447715 12.4493 -0.00434558 12.9997 0.041049C19.1594 0.549057 24 5.70923 24 12C24 18.6274 18.6274 24 12 24C5.70923 24 0.549057 19.1594 0.041049 12.9997C-0.00434557 12.4493 0.447715 12 1 12C1.55228 12 1.99475 12.449 2.04924 12.9986C2.55031 18.0526 6.81417 22 12 22C17.5228 22 22 17.5228 22 12C22 6.81417 18.0526 2.55031 12.9986 2.04924C12.449 1.99475 12 1.55228 12 1Z" fill="#1DA189" />
</svg>