<svg xmlns="http://www.w3.org/2000/svg" width="64" height="64" fill="none"><path fill="#333" d="M45 10H15a5 5 0 0 0-5 5v30a5 5 0 0 0 5 5h30a5 5 0 0 0 5-5V15a5 5 0 0 0-5-5Z"/><path fill="#555" d="M25 25H15a5 5 0 0 0-5 5v10a5 5 0 0 0 5 5h10a5 5 0 0 0 5-5V30a5 5 0 0 0-5-5Z"/><path fill="#555" d="m10 30 20 20H10V30Z"/><path fill="#555" d="M45 40H25a5 5 0 0 0 0 10h20a5 5 0 0 0 0-10Z"/><path stroke="#fff" stroke-width="2" d="M57 2H7a5 5 0 0 0-5 5v50a5 5 0 0 0 5 5h50a5 5 0 0 0 5-5V7a5 5 0 0 0-5-5Z"/></svg>